<?xml version="1.0"?><svg width="1500" height="1000" xmlns="http://www.w3.org/2000/svg">
 <title>cog7</title>
 <metadata id="metadata4083">image/svg+xml</metadata>
 <g>
  <title>Layer 1</title>
  <g transform="rotate(-0.054184)" id="svg_3">
   <path d="m703.406433,292.534607l11.765198,46.196991l0.042908,0.015381c-8.801331,5.778015 -16.881958,12.320099 -24.187195,19.471741l-0.012878,-0.028137l-44.004639,-20.238495l-20.16394,27.324707l33.98822,33.767059l0.072205,0.001251c-4.67865,9.1315 -8.423401,18.687469 -11.20166,28.496399l-0.069153,-0.072998l-48.935974,4.175751l-3.681824,33.20639l47.150024,12.314453c0.56665,9.950562 2.152222,19.912537 4.790955,29.764587l-0.043579,-0.015076l-40.777161,27.446838l13.817017,30.211548l47.632874,-12.456238l0.017273,-0.042603c5.733887,8.455078 12.243835,16.194458 19.415405,23.16394l-21.678406,43.380493l27.598083,19.087646l35.356018,-33.868774l-0.009827,-0.099854c9.264526,4.373596 18.972961,7.857605 28.973877,10.363525l-0.046509,0.054871l3.243958,47.643188l33.981018,2.88678l13.602173,-46.237976l-0.013184,-0.028809c10.2276,-0.761658 20.503174,-2.504578 30.673462,-5.289185l-0.016541,0.042114l27.286499,39.19165l31.251282,-14.10498l-11.765198,-46.197083l-0.042908,-0.01532c8.801086,-5.772827 16.893616,-12.296509 24.200378,-19.442871l44.034363,20.225037l20.163574,-27.325378l-34.017517,-33.75293c4.669189,-9.109375 8.421326,-18.641602 11.198303,-28.425354l48.965637,-4.189148l3.652832,-33.193359l-47.121033,-12.327545c-0.566528,-9.95224 -2.122192,-19.925232 -4.760559,-29.77829l40.791748,-27.418701l-13.816956,-30.211517l-47.634399,12.45694c-5.730347,-8.445618 -12.266357,-16.15802 -19.432251,-23.120728l21.649414,-43.367371l-27.569153,-19.100708l-35.386108,33.88147c-9.245178,-4.357666 -18.939819,-7.82077 -28.917786,-10.319305l-3.213989,-47.655823l-33.980896,-2.886871l-13.631958,46.251465c-10.22467,0.766266 -20.493713,2.530792 -30.660278,5.318024l0.016602,-0.042236l-27.286255,-39.190887l-31.251221,14.10498l-0.000366,-0.000671zm49.260376,66.451477c60.851685,-27.464905 131.983582,-2.105804 158.862366,56.666046c26.878845,58.771881 -0.685059,128.676483 -61.536804,156.141449c-60.852295,27.46521 -131.953796,2.092346 -158.832581,-56.679504c-26.878784,-58.77182 0.654663,-128.662781 61.507019,-156.127991z" stroke-width="2" stroke-miterlimit="4" stroke-linejoin="round" stroke-linecap="round" stroke-dashoffset="0" fill="#00ffff" id="svg_4"/>
  </g>
  <g transform="rotate(35.2673 1089.79 712.538)" id="svg_5">
   <path d="m1081.060791,606.651855l-4.330322,25.127441l0.015015,0.016968c-5.288574,0.880432 -10.408569,2.29248 -15.299316,4.173706l0,-0.016968l-16.069458,-19.562195l-15.103027,8.889832l8.575317,23.956665l0.033691,0.016968c-4.095093,3.424438 -7.8479,7.261719 -11.207153,11.435425l-0.016479,-0.050903l-23.512817,-8.737854l-8.725098,15.388489l19.199585,16.390076c-1.843018,4.978516 -3.216187,10.187744 -4.080078,15.574463l-0.016479,-0.016235l-24.661255,4.410583l0,17.781372l24.661255,4.411316l0.016479,-0.016968c0.863892,5.386719 2.237061,10.595947 4.080078,15.575256l-19.199585,16.389282l8.725098,15.388489l23.512817,-8.737854l0.016479,-0.050903c3.359253,4.173706 7.112061,8.010986 11.207153,11.435425l-0.033691,0.016968l-8.575317,23.956604l15.103027,8.889954l16.069458,-19.561523l0,-0.016968c4.890747,1.880493 10.010742,3.292542 15.299316,4.173706l-0.015015,0.016235l4.330322,25.12793l17.433838,0l4.330322,-25.12793l-0.015015,-0.016235c5.289307,-0.878845 10.413818,-2.279297 15.30603,-4.156738l16.085205,19.562256l15.10376,-8.890686l-8.593262,-23.956604c4.08313,-3.416016 7.836548,-7.240112 11.185425,-11.401489l23.532349,8.737854l8.705566,-15.388489l-19.179321,-16.389282c1.843018,-4.980103 3.229004,-10.187744 4.098022,-15.575256l24.656006,-4.394348l0,-17.781372l-24.656006,-4.410583c-0.869019,-5.38208 -2.255005,-10.583557 -4.098022,-15.558228l19.179321,-16.390076l-8.705566,-15.388489l-23.532349,8.737854c-3.348877,-4.161377 -7.102295,-7.985535 -11.185425,-11.401489l8.593262,-23.956665l-15.10376,-8.889832l-16.085205,19.562195c-4.892212,-1.878113 -10.016724,-3.278625 -15.30603,-4.156738l0.015015,-0.016968l-4.330322,-25.12738l-17.433838,0l0,-0.000061l0,0zm8.728149,43.264465c33.946045,0 61.478882,28.033081 61.478882,62.622681c0,34.589539 -27.532837,62.622681 -61.478882,62.622681c-33.949707,0 -61.463867,-28.033142 -61.463867,-62.622681c0,-34.5896 27.51416,-62.622681 61.463867,-62.622681z" stroke-width="2" stroke-miterlimit="4" stroke-linejoin="round" stroke-linecap="round" stroke-dashoffset="0" fill="#0000ff" id="svg_6"/>
  </g>
  <g transform="rotate(-51.2355 1260.76 530.774)" id="svg_9">
   <path d="m1247.530029,372.151001l-6.560059,37.640991l0.030029,0.025024c-8.02002,1.320007 -15.780029,3.435974 -23.189087,6.252991l0,-0.026001l-24.3479,-29.304016l-22.884033,13.317993l12.994019,35.887024l0.049927,0.024963c-6.203979,5.130005 -11.890015,10.879028 -16.97998,17.131042l-0.025024,-0.077026l-35.625977,-13.088989l-13.220947,23.052002l29.091064,24.552002c-2.791992,7.458984 -4.873047,15.262024 -6.182129,23.33197l-0.024902,-0.024963l-37.367065,6.607971l0,26.636047l37.367065,6.607971l0.024902,-0.026001c1.308105,8.070007 3.390137,15.872986 6.182129,23.332031l-29.091064,24.552002l13.220947,23.051941l35.625977,-13.088989l0.025024,-0.076965c5.089966,6.251953 10.776001,12.000977 16.97998,17.130981l-0.049927,0.025024l-12.994019,35.886963l22.884033,13.317993l24.3479,-29.303955l0,-0.026001c7.409058,2.816956 15.169067,4.932983 23.189087,6.252991l-0.030029,0.024963l6.560059,37.641052l26.419922,0l6.560059,-37.641052l-0.030029,-0.024963c8.02002,-1.317017 15.780029,-3.414001 23.190063,-6.22699l24.369995,29.303955l22.890015,-13.317993l-13.02002,-35.886963c6.189941,-5.117004 11.869995,-10.845032 16.949951,-17.079041l35.660034,13.088989l13.189941,-23.051941l-29.059937,-24.552002c2.789917,-7.460022 4.890015,-15.261047 6.199951,-23.332031l37.369995,-6.58197l0,-26.636047l-37.369995,-6.607971c-1.309937,-8.062988 -3.410034,-15.85498 -6.199951,-23.307007l29.059937,-24.551025l-13.189941,-23.052979l-35.660034,13.090027c-5.079956,-6.235046 -10.76001,-11.963013 -16.949951,-17.080017l13.02002,-35.887024l-22.890015,-13.317993l-24.369995,29.304016c-7.410034,-2.812012 -15.170044,-4.910034 -23.190063,-6.226013l0.030029,-0.026001l-6.560059,-37.640015l-26.419922,0l0,-0.000977zm13.219971,64.810974c51.439941,0 93.160034,41.994019 93.160034,93.809998c0,51.815002 -41.720093,93.809021 -93.160034,93.809021c-51.435059,0 -93.123047,-41.994019 -93.123047,-93.809021c0,-51.815979 41.687988,-93.809998 93.123047,-93.809998z" stroke-width="2" stroke-miterlimit="4" stroke-linejoin="round" stroke-linecap="round" stroke-dashoffset="0" fill="#ff0000" id="svg_10"/>
  </g>
  <g transform="rotate(-7.87098 242.105 509.557)" id="svg_11">
   <path d="m226.745621,330.75531l-7.62056,42.428986l0.02887,0.029053c-9.314468,1.487915 -18.326691,3.871948 -26.934723,7.046997l0,-0.028076l-28.283096,-33.031952l-26.583435,15.011993l15.093887,40.451965l0.058701,0.029053c-7.206711,5.781982 -13.812881,12.261963 -19.725128,19.30896l-0.02887,-0.085938l-41.38472,-14.754028l-15.358536,25.984009l33.793983,27.674988c-3.243401,8.407959 -5.661034,17.203003 -7.180725,26.299988l-0.029823,-0.028992l-43.406811,7.448975l0,30.024078l43.406811,7.448975l0.029823,-0.028015c1.519691,9.096008 3.937325,17.892029 7.180725,26.299011l-33.793983,27.674988l15.358536,25.984985l41.38472,-14.753967l0.02887,-0.087036c5.912247,7.048035 12.518417,13.527039 19.725128,19.310059l-0.058701,0.027954l-15.093887,40.452026l26.583435,15.011963l28.283096,-33.030945l0,-0.029053c8.608032,3.175049 17.620255,5.559998 26.934723,7.048035l-0.02887,0.028015l7.62056,42.428955l30.686295,0l7.620575,-42.428955l-0.02887,-0.028015c9.3125,-1.484009 18.327637,-3.848999 26.934692,-7.018982l28.312927,33.031982l26.583435,-15.012024l-15.123718,-40.453003c7.190338,-5.766968 13.792664,-12.224976 19.696259,-19.251953l41.413574,14.753967l15.328735,-25.984009l-33.76416,-27.674988c3.244354,-8.40802 5.68988,-17.202026 7.209595,-26.299988l43.407745,-7.419983l0,-30.024078l-43.407745,-7.448975c-1.519714,-9.087036 -3.969086,-17.871033 -7.209595,-26.270996l33.76416,-27.674011l-15.328735,-25.984985l-41.413574,14.754028c-5.903595,-7.027039 -12.504944,-13.484009 -19.696259,-19.252075l15.123718,-40.451965l-26.583435,-15.011993l-28.312927,33.031952c-8.607056,-3.170959 -17.622192,-5.534973 -26.934692,-7.018921l0.02887,-0.028076l-7.620575,-42.429962l-30.686295,0l0,0zm15.357574,73.054962c59.753769,0 108.209488,47.33606 108.209488,105.743042c0,58.407013 -48.455719,105.743011 -108.209488,105.743011c-59.752823,0 -108.179672,-47.335999 -108.179672,-105.743011c0,-58.406982 48.426849,-105.743042 108.179672,-105.743042z" stroke-width="2" stroke-miterlimit="4" stroke-linejoin="round" stroke-linecap="round" stroke-dashoffset="0" fill="#7f00ff" id="svg_12"/>
  </g>
  <g transform="rotate(0.12599)" id="svg_8">
   <path d="m1075.73999,83.674988l-7.349976,42.83902l0.030029,0.028992c-8.980103,1.502014 -17.660034,3.908997 -25.960083,7.11499l0,-0.027985l-27.26001,-33.35199l-25.630005,15.156982l14.550049,40.843994l0.060059,0.028015c-6.950073,5.838989 -13.320068,12.380981 -19.01001,19.496002l-0.030029,-0.087006l-39.890015,-14.895996l-14.810059,26.234985l32.580078,27.942993c-3.130005,8.488007 -5.459961,17.369019 -6.920044,26.554016l-0.030029,-0.028992l-41.839966,7.520996l0,30.313965l41.839966,7.521057l0.030029,-0.029053c1.460083,9.184998 3.790039,18.06604 6.920044,26.554016l-32.580078,27.942017l14.810059,26.235962l39.890015,-14.896973l0.030029,-0.085999c5.689941,7.11499 12.059937,13.656982 19.01001,19.494995l-0.060059,0.028992l-14.550049,40.843994l25.630005,15.157043l27.26001,-33.352051l0,-0.027954c8.300049,3.205994 16.97998,5.612976 25.960083,7.11499l-0.030029,0.028992l7.349976,42.838989l29.579956,0l7.340088,-42.838989l-0.030029,-0.028992c8.97998,-1.497986 17.670044,-3.88501 25.969971,-7.087036l27.290039,33.352051l25.619995,-15.157043l-14.579956,-40.843994c6.929932,-5.822998 13.299927,-12.342957 18.98999,-19.437988l39.909912,14.896973l14.780029,-26.235962l-32.549927,-27.942017c3.129883,-8.48999 5.48999,-17.367981 6.949951,-26.554016l41.839966,-7.492004l0,-30.313965l-41.839966,-7.520996c-1.459961,-9.176025 -3.820068,-18.044006 -6.949951,-26.525024l32.549927,-27.941986l-14.780029,-26.235992l-39.909912,14.897003c-5.690063,-7.095001 -12.060059,-13.615021 -18.98999,-19.438019l14.579956,-40.843994l-25.619995,-15.156982l-27.290039,33.350983c-8.299927,-3.200989 -16.98999,-5.588013 -25.969971,-7.085999l0.030029,-0.028992l-7.340088,-42.83902l-29.579956,0l0,0zm14.800049,73.761017c57.599976,0 104.299927,47.792999 104.299927,106.764984c0,58.971985 -46.699951,106.765015 -104.299927,106.765015c-57.590088,0 -104.27002,-47.79303 -104.27002,-106.765015c0,-58.971985 46.679932,-106.764984 104.27002,-106.764984z" stroke-width="2" stroke-miterlimit="4" stroke-linejoin="round" stroke-linecap="round" stroke-dashoffset="0" fill="#ff7f00" id="svg_19"/>
  </g>
  <text xml:space="preserve" y="-31.0621" x="-137.0625" transform="matrix(1.85 0 0 1.85185 124.95 45.1481)" text-anchor="middle" stroke-width="0" stroke-linejoin="null" stroke-linecap="null" stroke-dasharray="null" stroke="#000000" fill="#ffffff" font-size="24" font-family="Arial" id="svg_24"/>
  <g transform="rotate(35.2673 477.69 660.883)" id="svg_7">
   <path d="m468.184845,547.652344l-4.714905,26.870605l0.017548,0.017761c-5.763245,0.942017 -11.340118,2.452576 -16.666443,4.463135l0,-0.017761l-17.501495,-20.919495l-16.450287,9.506958l9.340851,25.618958l0.036163,0.017883c-4.459839,3.662781 -8.547516,7.765564 -12.20578,12.228699l-0.018494,-0.054443l-25.608368,-9.343689l-9.503174,16.456299l20.911041,17.526917c-2.006775,5.324402 -3.503265,10.894531 -4.443115,16.655273l-0.018494,-0.017944l-26.859955,4.717407l0,19.014954l26.859955,4.717285l0.018494,-0.017761c0.93985,5.760559 2.43634,11.330811 4.443115,16.655212l-20.911041,17.526794l9.503174,16.45636l25.608368,-9.343689l0.018494,-0.054443c3.658264,4.463074 7.745941,8.565979 12.20578,12.22876l-0.036163,0.017822l-9.340851,25.619019l16.450287,9.506897l17.501495,-20.919434l0,-0.017761c5.326324,2.010559 10.903198,3.521057 16.666443,4.463074l-0.017548,0.017883l4.714905,26.870544l18.988647,0l4.715912,-26.870544l-0.018555,-0.017883c5.763306,-0.940063 11.341034,-2.437378 16.667389,-4.445313l17.519989,20.919434l16.449402,-9.506897l-9.358398,-25.619019c4.449524,-3.652405 8.534607,-7.742126 12.187195,-12.192139l25.626892,9.343689l9.484558,-16.45636l-20.892456,-17.526794c2.007751,-5.325378 3.520935,-10.893738 4.46167,-16.655212l26.859924,-4.699524l0,-19.014954l-26.859924,-4.717407c-0.940735,-5.754883 -2.455811,-11.317688 -4.46167,-16.637329l20.892456,-17.526917l-9.484558,-16.456299l-25.626892,9.343689c-3.652588,-4.44989 -7.737671,-8.539612 -12.187195,-12.192139l9.358398,-25.618958l-16.449402,-9.506958l-17.519989,20.919495c-5.326355,-2.007874 -10.904083,-3.505249 -16.667389,-4.445374l0.018555,-0.017761l-4.715912,-26.870605l-18.988647,0l0,0zm9.504089,46.266296c36.974457,0 66.95816,29.977966 66.95816,66.968201c0,36.989258 -29.983704,66.967163 -66.95816,66.967163c-36.975433,0 -66.941437,-29.977905 -66.941437,-66.967163c0,-36.990234 29.966003,-66.968201 66.941437,-66.968201z" stroke-width="2" stroke-miterlimit="4" stroke-linejoin="round" stroke-linecap="round" stroke-dashoffset="0" fill="#007f00" id="svg_13"/>
  </g>
  <g transform="rotate(4.41573 494.454 305.854)" id="svg_1">
   <path d="m479.598694,130.497101l-7.349976,41.610382l0.030029,0.028152c-8.980103,1.458939 -17.660034,3.79689 -25.960083,6.910934l0,-0.027191l-27.26001,-32.395432l-25.630005,14.722275l14.550049,39.672546l0.060059,0.027222c-6.950073,5.671524 -13.320068,12.025879 -19.01001,18.936844l-0.030029,-0.084518l-39.890015,-14.468765l-14.810059,25.482544l32.580078,27.141556c-3.130005,8.244568 -5.459961,16.87085 -6.920044,25.792419l-0.030029,-0.028168l-41.839966,7.305298l0,29.444519l41.839966,7.305359l0.030029,-0.028229c1.460083,8.92157 3.790039,17.547882 6.920044,25.792419l-32.580078,27.140625l14.810059,25.48349l39.890015,-14.469696l0.030029,-0.083557c5.689941,6.91095 12.059937,13.265289 19.01001,18.935883l-0.060059,0.028137l-14.550049,39.672577l25.630005,14.722321l27.26001,-32.395477l0,-0.027161c8.300049,3.114044 16.97998,5.451996 25.960083,6.910919l-0.030029,0.028168l7.349976,41.610321l29.579956,0l7.340088,-41.610321l-0.030029,-0.028168c8.97998,-1.455017 17.670044,-3.77359 25.969971,-6.883759l27.290039,32.395477l25.619995,-14.722321l-14.579956,-39.672577c6.929932,-5.655975 13.299927,-11.988953 18.98999,-18.880463l39.909912,14.469696l14.780029,-25.48349l-32.549927,-27.140625c3.129883,-8.24649 5.48999,-16.869843 6.949951,-25.792419l41.839966,-7.27713l0,-29.444519l-41.839966,-7.305298c-1.459961,-8.912842 -3.820068,-17.526489 -6.949951,-25.764252l32.549927,-27.140579l-14.780029,-25.483521l-39.909912,14.469742c-5.690063,-6.89151 -12.060059,-13.224533 -18.98999,-18.880524l14.579956,-39.672546l-25.619995,-14.722275l-27.290039,32.394455c-8.299927,-3.109177 -16.98999,-5.42775 -25.969971,-6.882767l0.030029,-0.028152l-7.340088,-41.610382l-29.579956,0l0,0zm14.800049,71.645508c57.599976,0 104.299927,46.422256 104.299927,103.70285c0,57.280609 -46.699951,103.702911 -104.299927,103.702911c-57.590088,0 -104.27002,-46.422302 -104.27002,-103.702911c0,-57.280594 46.679932,-103.70285 104.27002,-103.70285z" stroke-width="2" stroke-miterlimit="4" stroke-linejoin="round" stroke-linecap="round" stroke-dashoffset="0" fill="#ff7f00" id="svg_2"/>
  </g>
 </g>
</svg>